<svg xmlns="http://www.w3.org/2000/svg" xmlns:xlink="http://www.w3.org/1999/xlink" fill="none" version="1.1" width="512" height="512" viewBox="0 0 512 512"><defs><clipPath id="master_svg0_1777_6784"><rect x="0" y="0" width="512" height="512" rx="0"/></clipPath><radialGradient cx="0" cy="0" r="1" gradientUnits="userSpaceOnUse" id="master_svg1_1401_03369" gradientTransform="translate(64 64) rotate(45.451138106403114) scale(574.754221249179 574.754221249179)"><stop offset="2.888607792556286%" stop-color="#FAB67D" stop-opacity="1"/><stop offset="34.146541357040405%" stop-color="#FD559B" stop-opacity="1"/><stop offset="70.50707936286926%" stop-color="#9065FB" stop-opacity="1"/><stop offset="100%" stop-color="#57DBFF" stop-opacity="1"/></radialGradient><linearGradient x1="0.0729166641831398" y1="0.03750000149011612" x2="0.6312500238418579" y2="0.5895833373069763" id="master_svg2_1401_03370"><stop offset="0%" stop-color="#FDB172" stop-opacity="1"/><stop offset="100%" stop-color="#FDBE72" stop-opacity="0"/></linearGradient><linearGradient x1="0.07708333432674408" y1="0.04791666567325592" x2="0.8979166746139526" y2="0.9583333134651184" id="master_svg3_1401_7461"><stop offset="2.888607792556286%" stop-color="#FFFFFF" stop-opacity="1"/><stop offset="29.13793921470642%" stop-color="#FFFFFF" stop-opacity="1"/><stop offset="66.0831093788147%" stop-color="#FFFFFF" stop-opacity="1"/><stop offset="100%" stop-color="#FFFFFF" stop-opacity="1"/></linearGradient><linearGradient x1="0.0729166641831398" y1="0.03750000149011612" x2="0.6312500238418579" y2="0.5895833373069763" id="master_svg4_1401_7462"><stop offset="0%" stop-color="#FFFFFF" stop-opacity="1"/><stop offset="100%" stop-color="#FFFFFF" stop-opacity="0"/></linearGradient><mask id="master_svg5_1777_6761" style="mask-type:alpha" maskUnits="userSpaceOnUse"><g><rect x="0" y="0" width="512" height="512" rx="120" fill="url(#master_svg3_1401_7461)" fill-opacity="1"/><rect x="0" y="0" width="512" height="512" rx="120" fill="url(#master_svg4_1401_7462)" fill-opacity="0.6000000238418579" style="mix-blend-mode:overlay"/></g></mask><filter id="master_svg6_1777_6762" filterUnits="objectBoundingBox" color-interpolation-filters="sRGB" x="-16" y="-10" width="333.43707275390625" height="318.25677490234375"><feFlood flood-opacity="0" result="BackgroundImageFix"/><feColorMatrix in="SourceAlpha" type="matrix" values="0 0 0 0 0 0 0 0 0 0 0 0 0 0 0 0 0 0 127 0"/><feOffset dy="6" dx="0"/><feGaussianBlur stdDeviation="4"/><feColorMatrix type="matrix" values="0 0 0 0 0 0 0 0 0 0 0 0 0 0 0 0 0 0 0.10000000149011612 0"/><feBlend mode="normal" in2="BackgroundImageFix" result="effect1_dropShadow"/><feBlend mode="normal" in="SourceGraphic" in2="effect1_dropShadow" result="shape"/></filter><linearGradient x1="-0.05223965272307396" y1="0.3545081913471222" x2="1.0585662126541138" y2="1" id="master_svg7_1401_7417"><stop offset="0%" stop-color="#FFFFFF" stop-opacity="0.800000011920929"/><stop offset="100%" stop-color="#FFFFFF" stop-opacity="0.30000001192092896"/></linearGradient><filter id="master_svg8_1777_6767" filterUnits="objectBoundingBox" color-interpolation-filters="sRGB" x="-16" y="-10" width="318.3651123046875" height="389.8205261230469"><feFlood flood-opacity="0" result="BackgroundImageFix"/><feColorMatrix in="SourceAlpha" type="matrix" values="0 0 0 0 0 0 0 0 0 0 0 0 0 0 0 0 0 0 127 0"/><feOffset dy="6" dx="0"/><feGaussianBlur stdDeviation="4"/><feColorMatrix type="matrix" values="0 0 0 0 0 0 0 0 0 0 0 0 0 0 0 0 0 0 0.10000000149011612 0"/><feBlend mode="normal" in2="BackgroundImageFix" result="effect1_dropShadow"/><feBlend mode="normal" in="SourceGraphic" in2="effect1_dropShadow" result="shape"/></filter><linearGradient x1="0.9169689416885376" y1="0.07228246331214905" x2="0.09446701407432556" y2="0.9851959943771362" id="master_svg9_1401_6965"><stop offset="0%" stop-color="#FFFFFF" stop-opacity="0.800000011920929"/><stop offset="100%" stop-color="#FFFFFF" stop-opacity="0.5"/></linearGradient><filter id="master_svga_1777_6772" filterUnits="objectBoundingBox" color-interpolation-filters="sRGB" x="-16" y="-10" width="342.11151123046875" height="264.0415344238281"><feFlood flood-opacity="0" result="BackgroundImageFix"/><feColorMatrix in="SourceAlpha" type="matrix" values="0 0 0 0 0 0 0 0 0 0 0 0 0 0 0 0 0 0 127 0"/><feOffset dy="6" dx="0"/><feGaussianBlur stdDeviation="4"/><feColorMatrix type="matrix" values="0 0 0 0 0 0 0 0 0 0 0 0 0 0 0 0 0 0 0.10000000149011612 0"/><feBlend mode="normal" in2="BackgroundImageFix" result="effect1_dropShadow"/><feBlend mode="normal" in="SourceGraphic" in2="effect1_dropShadow" result="shape"/></filter><linearGradient x1="0.9090909361839294" y1="0.1569191962480545" x2="-0.12310606241226196" y2="1.0303312540054321" id="master_svgb_1330_8637"><stop offset="0%" stop-color="#FFFFFF" stop-opacity="0.8999999761581421"/><stop offset="100%" stop-color="#FFFFFF" stop-opacity="0.5"/></linearGradient><filter id="master_svgc_1777_6775" filterUnits="objectBoundingBox" color-interpolation-filters="sRGB" x="-16" y="-10" width="379.34869384765625" height="394.358154296875"><feFlood flood-opacity="0" result="BackgroundImageFix"/><feColorMatrix in="SourceAlpha" type="matrix" values="0 0 0 0 0 0 0 0 0 0 0 0 0 0 0 0 0 0 127 0"/><feOffset dy="6" dx="0"/><feGaussianBlur stdDeviation="4"/><feColorMatrix type="matrix" values="0 0 0 0 0 0 0 0 0 0 0 0 0 0 0 0 0 0 0.10000000149011612 0"/><feBlend mode="normal" in2="BackgroundImageFix" result="effect1_dropShadow"/><feBlend mode="normal" in="SourceGraphic" in2="effect1_dropShadow" result="shape"/></filter><linearGradient x1="0.07784170657396317" y1="0.09150508791208267" x2="1.0585662126541138" y2="1" id="master_svgd_1401_6413"><stop offset="0%" stop-color="#FFFFFF" stop-opacity="0.8999999761581421"/><stop offset="100%" stop-color="#FFFFFF" stop-opacity="0.30000001192092896"/></linearGradient></defs><g clip-path="url(#master_svg0_1777_6784)"><g><g><rect x="0" y="0" width="512" height="512" rx="120" fill="url(#master_svg1_1401_03369)" fill-opacity="1"/><rect x="0" y="0" width="512" height="512" rx="120" fill="url(#master_svg2_1401_03370)" fill-opacity="0.6000000238418579" style="mix-blend-mode:overlay"/></g><g mask="url(#master_svg5_1777_6761)"><g transform="matrix(0.9701516628265381,0.2424989491701126,-0.2424989491701126,0.9701516628265381,1.6413776260353643,-73.80418511505422)" filter="url(#master_svg6_1777_6762)"><path d="M461.90801416015626,191.48248194885255Q516.9000141601563,209.09448194885255,602.0640141601563,209.09448194885255L602.0640141601563,256.02248194885254Q508.0320141601562,256.02248194885254,447.1880141601563,236.05648194885254Q387.15651416015623,216.35748194885255,352.88311416015625,175.63548194885254Q336.69421416015626,156.39948194885253,325.81391416015623,132.06748194885253Q319.85171416015623,118.73448194885253,315.36471416015627,103.57748194885255Q321.66121416015625,94.33348194885254,326.78671416015624,84.26148194885253Q347.84601416015624,43.157481948852535,347.84601416015624,-9.11731805114746L347.84601416015624,-13.346918051147462Q348.21011416015625,7.610281948852538,349.50971416015625,24.762581948852542Q351.53891416015625,51.54568194885253,356.07501416015623,72.74948194885253Q360.88431416015624,95.23048194885254,368.81321416015624,112.96248194885254Q377.00481416015623,131.28248194885253,388.9491141601562,145.47348194885254Q414.60801416015624,175.96048194885253,461.90801416015626,191.48248194885255ZM300.7686161601562,-30.234579086347463L300.62695312495623,-30.234579086347463Q300.62695312495623,-21.331138051147462,300.7686161601562,-12.964518051147461L300.7686161601562,-30.234579086347463Z" fill-rule="evenodd" fill="url(#master_svg7_1401_7417)" fill-opacity="1"/></g><g transform="matrix(0.9701516628265381,0.2424989491701126,-0.2424989491701126,0.9701516628265381,32.05071138535982,-12.67769497992424)" filter="url(#master_svg8_1777_6767)"><path d="M114.63781324462892,481.6781014404297L114.6182132446289,481.6781014404297L67.5245132446289,480.5011014404297Q67.5245437622289,436.0861014404297,79.23561324462891,401.28810144042967Q89.98091324462891,369.3601014404297,111.09831324462891,344.0691014404297Q128.3328132446289,323.4291014404297,154.6835132446289,304.96110144042973Q164.8395132446289,297.8431014404297,177.9945132446289,289.8691014404297Q185.7095132446289,285.1931014404297,201.1505132446289,276.2901014404297Q216.0945132446289,267.6741014404297,223.3375132446289,263.2851014404297Q235.11051324462892,256.15110144042967,243.9475132446289,249.96310144042968Q265.0795132446289,235.1671014404297,278.2325132446289,219.45160144042967Q293.57151324462893,201.1242014404297,301.4325132446289,177.8403014404297Q309.3895132446289,154.2733014404297,310.4435132446289,123.85714321712969Q328.5905132446289,145.3240014404297,353.8895132446289,160.9205014404297Q351.0225132446289,177.8375014404297,345.9255132446289,192.9345014404297Q335.2335132446289,224.60510144042968,314.2175132446289,249.7151014404297Q297.0705132446289,270.2031014404297,270.8445132446289,288.56510144042966Q260.7365132446289,295.64210144042966,247.6375132446289,303.5801014404297Q239.9575132446289,308.2341014404297,224.5705132446289,317.1061014404297Q209.57451324462892,325.75210144042967,202.30051324462892,330.16110144042966Q190.4775132446289,337.3281014404297,181.59751324462889,343.55110144042965Q160.3534132446289,358.44010144042966,147.1179132446289,374.29110144042966Q131.66641324462893,392.7971014404297,123.74291324462891,416.3401014404297Q114.63781324462892,444.9911014404297,114.63781324462892,481.6781014404297Z" fill-rule="evenodd" fill="url(#master_svg9_1401_6965)" fill-opacity="1"/></g><g transform="matrix(0.9701516628265381,0.2424989491701126,-0.2424989491701126,0.9701516628265381,-21.38784627055736,-13.97056262099386)" filter="url(#master_svga_1777_6772)"><path d="M309.1820983886719,-72.72439158935546L356.1690983886719,-72.72439158935546L356.1690983886719,-93.86675262455547L309.1820983886719,-93.86675262455547L309.1820983886719,-72.72439158935546L356.1690983886719,-72.72439158935546Q356.1690983886719,-20.38769158935547,335.1500983886719,20.765308410644536Q314.01409838867187,62.42930841064452,272.92509838867187,89.94530841064454Q232.73109838867188,116.86230841064454,175.27509838867186,128.82730841064452Q118.34189838867188,140.68330841064454,46.057098388671875,137.50130841064453L46.057098388671875,91.71630841064453Q112.45949838867188,94.63930841064453,165.69509838867188,82.83130841064454Q214.19009838867188,72.73230841064452,246.77809838867188,50.90830841064454Q309.04109838867186,9.21330841064453,309.1820983886719,-72.72439158935546L309.1820983886719,-72.72439158935546Z" fill-rule="evenodd" fill="url(#master_svgb_1330_8637)" fill-opacity="1"/></g><g transform="matrix(0.9701516628265381,0.2424989491701126,-0.2424989491701126,0.9701516628265381,37.73220492705059,-30.390427178222808)" filter="url(#master_svgc_1777_6775)"><path d="M489.6666727294922,500.4370170898438L442.8796727294922,500.4370170898438Q442.6946727294922,466.6460170898437,431.8336727294922,440.48201708984374Q422.1426727294922,417.13801708984374,402.91467272949217,397.70801708984374Q386.1396727294922,380.75501708984376,359.19867272949216,364.06501708984376Q348.0236727294922,357.14201708984376,333.1906727294922,349.0550170898438Q324.1326727294922,344.1170170898438,305.5176727294922,334.4010170898438Q286.26167272949215,324.35001708984373,276.6786727294922,319.12101708984375Q269.4896727294922,315.1970170898437,263.0316727294922,311.4870170898438Q266.0136727294922,309.48601708984376,268.7716727294922,307.54901708984374Q287.9176727294922,294.10701708984374,302.2046727294922,279.5240170898437Q311.2336727294922,284.3910170898438,327.0776727294922,292.66101708984377Q346.0646727294922,302.5720170898437,355.4946727294922,307.7130170898438Q371.46767272949216,316.4200170898438,383.7446727294922,324.0260170898438Q415.4016727294922,343.63801708984374,436.0846727294922,364.53901708984375Q461.7846727294922,390.5110170898438,475.01067272949217,422.37001708984377Q489.47267272949216,457.20801708984374,489.6666727294922,500.4370170898438ZM142.31760477809217,154.26071708984375Q145.9001827294922,179.43781708984375,154.8924727294922,201.35581708984375Q168.3780727294922,234.22581708984376,194.5775727294922,260.92801708984376Q205.70967272949218,272.2740170898437,219.9423727294922,283.21201708984376Q220.73487272949217,282.7350170898437,221.4529727294922,282.2980170898437Q233.1792727294922,275.1730170898437,241.9817727294922,268.9920170898438Q252.1036727294922,261.88501708984376,260.3876727294922,254.56601708984374Q241.0886727294922,241.35601708984376,227.8871727294922,227.90161708984374Q208.13137272949217,207.76691708984373,198.14427272949217,183.42421708984375Q189.76107272949218,162.99101708984375,187.5353727294922,138.07921794484375Q166.6630727294922,147.68212708984376,142.31760477809217,154.26071708984375Z" fill-rule="evenodd" fill="url(#master_svgd_1401_6413)" fill-opacity="1"/></g></g></g></g></svg>